<mxfile host="app.diagrams.net" modified="2021-03-26T11:23:02.238Z" agent="5.0 (Macintosh; Intel Mac OS X 10_14_6) AppleWebKit/537.36 (KHTML, like Gecko) Chrome/89.0.4389.90 Safari/537.36" etag="WO2q7cqiOORzJDyDOL1D" version="14.3.1" type="github">
  <diagram id="zxxigkhGm5z33HfA5klr" name="Page-1">
    <mxGraphModel dx="4342" dy="5600" grid="1" gridSize="10" guides="1" tooltips="1" connect="1" arrows="1" fold="1" page="1" pageScale="1" pageWidth="827" pageHeight="1169" math="0" shadow="0">
      <root>
        <mxCell id="0" />
        <mxCell id="1" parent="0" />
        <mxCell id="_qV3K56jCHBk78SOK0Jd-1" value="" style="whiteSpace=wrap;html=1;imageWidth=1242;imageHeight=2436;strokeColor=#d6b656;fillColor=#FFFF00;" vertex="1" parent="1">
          <mxGeometry y="120" width="1242" height="2436" as="geometry" />
        </mxCell>
      </root>
    </mxGraphModel>
  </diagram>
</mxfile>
